# File created by Blade
# Date/Time:  Tue Apr 07 21:12:38 2015
# Frame Rate: 120.000 fps
#------------------------------------------------------
:FULLY-SPECIFIED
:DEGREES
523
root 23.457254 16.510280 4.472756 373.886848 -54.992348 -298.388256
Spine 45.855601 -23.903047 -2.116068
Head -45.764409 1.215759 19.369844
LeftShoulder 4.037778 8.536889 42.691154
LeftArm 116.788984 -24.105665 -109.961074
LeftForeArm 29.442934 0.000000 107.493615
LeftHand -6.694581 0.000000 -1.513957
LeftHandThumb1 -26.253704 0.000000 33.147579
RightShoulder 8.156759 34.274750 -25.487495
RightArm 54.359872 34.308269 103.326508
RightForeArm -30.413933 -0.000000 127.498748
RightHand -3.902246 -0.000000 5.331142
RightHandThumb1 -24.326973 -0.000000 -32.862282
LeftUpLeg -88.857021 -8.626913 6.663879
LeftLeg 119.121270 -0.000000 -0.000000
LeftFoot 30.116950 -48.973995 -77.048422
LeftToeBase -122.344482 -0.000000 0.000000
RightUpLeg -96.064815 -18.707295 2.303202
RightLeg 136.359657 -0.000000 -0.000000
RightFoot -24.485825 -13.229628 7.781782
RightToeBase -67.630120 -0.000000 0.000000
524
root 23.364598 16.546578 4.542794 374.578970 -55.490463 -298.684683
Spine 45.409421 -23.422224 -1.801932
Head -45.509875 0.875634 19.532916
LeftShoulder 4.105515 8.447929 42.701576
LeftArm 116.295256 -24.411090 -109.483691
LeftForeArm 29.477852 -0.000000 107.936469
LeftHand -6.692827 -0.000000 -1.191701
LeftHandThumb1 -26.253704 0.000000 33.147579
RightShoulder 8.213778 34.506060 -25.258547
RightArm 53.655213 34.468240 103.027291
RightForeArm -30.497486 -0.000000 127.732741
RightHand -3.756059 -0.000000 5.152621
RightHandThumb1 -24.326973 -0.000000 -32.862282
LeftUpLeg -87.954244 -9.150452 7.892098
LeftLeg 118.292320 -0.000000 -0.000000
LeftFoot 29.906063 -46.253831 -77.981978
LeftToeBase -119.378386 -0.000000 0.000000
RightUpLeg -96.132811 -18.461834 2.268004
RightLeg 136.041604 -0.000000 -0.000000
RightFoot -24.777570 -12.638276 8.144127
RightToeBase -66.985478 -0.000000 0.000000
525
root 23.286427 16.585568 4.613976 375.265608 -55.861870 -298.915454
Spine 44.849484 -23.019469 -1.407094
Head -45.247564 0.447283 19.695501
LeftShoulder 4.258886 8.280492 42.714970
LeftArm 115.771737 -24.691422 -108.992745
LeftForeArm 29.567796 0.000000 108.319135
LeftHand -6.667975 -0.000000 -0.884150
LeftHandThumb1 -26.253704 0.000000 33.147579
RightShoulder 8.196442 34.239435 -25.150243
RightArm 53.543071 34.603581 103.030356
RightForeArm -30.553283 -0.000000 127.938960
RightHand -3.674092 0.000000 5.044557
RightHandThumb1 -24.326973 -0.000000 -32.862282
LeftUpLeg -87.248061 -9.873207 9.067323
LeftLeg 117.408397 -0.000000 -0.000000
LeftFoot 30.181837 -41.702719 -80.152986
LeftToeBase -113.006138 -0.000000 0.000000
RightUpLeg -96.314897 -18.389781 2.307019
RightLeg 135.753899 -0.000000 -0.000000
RightFoot -24.769117 -12.477690 7.844410
RightToeBase -66.705266 -0.000000 0.000000
526
root 23.216550 16.614578 4.690489 375.941561 -56.312204 -299.245748
Spine 44.361421 -22.510239 -1.043301
Head -44.974094 0.106352 19.832231
LeftShoulder 4.465452 8.107880 42.842819
LeftArm 115.221047 -25.013039 -108.553637
LeftForeArm 29.647992 -0.000000 108.742708
LeftHand -6.777401 -0.000000 -0.676455
LeftHandThumb1 -26.253704 0.000000 33.147579
RightShoulder 8.165124 33.878131 -25.019142
RightArm 53.511257 34.668370 103.101517
RightForeArm -30.665198 -0.000000 128.105752
RightHand -3.604300 0.000000 4.833729
RightHandThumb1 -24.326973 -0.000000 -32.862282
LeftUpLeg -86.577064 -10.480717 9.970171
LeftLeg 116.787087 -0.000000 -0.000000
LeftFoot 26.911736 -41.062901 -76.602924
LeftToeBase -112.455439 -0.000000 0.000000
RightUpLeg -96.472752 -18.274195 2.396929
RightLeg 135.511111 -0.000000 -0.000000
RightFoot -24.627395 -12.327418 7.452692
RightToeBase -66.204432 -0.000000 0.000000
527
root 23.149621 16.637801 4.767684 376.553102 -56.829174 -299.623682
Spine 43.991139 -21.952822 -0.752520
Head -44.727980 -0.194741 19.925464
LeftShoulder 4.661678 7.663744 42.920190
LeftArm 114.414883 -25.271892 -108.068535
LeftForeArm 29.753182 -0.000000 109.154311
LeftHand -6.846019 -0.000000 -0.555835
LeftHandThumb1 -26.253704 0.000000 33.147579
RightShoulder 8.129808 33.651946 -24.897461
RightArm 53.362556 34.662909 103.166736
RightForeArm -30.935516 -0.000000 128.217465
RightHand -3.498183 0.000000 4.577724
RightHandThumb1 -24.326973 -0.000000 -32.862282
LeftUpLeg -85.809373 -11.031945 10.888250
LeftLeg 116.105098 -0.000000 -0.000000
LeftFoot 25.695455 -40.530448 -76.251185
LeftToeBase -111.734192 -0.000000 0.000000
RightUpLeg -96.483812 -18.017307 2.412820
RightLeg 135.258236 -0.000000 -0.000000
RightFoot -24.588253 -12.111671 7.250307
RightToeBase -65.893495 -0.000000 0.000000
528
root 23.093584 16.660190 4.843180 377.189220 -57.278654 -300.046707
Spine 43.633097 -21.516189 -0.468635
Head -44.460766 -0.458300 19.950618
LeftShoulder 4.845318 7.529252 42.967505
LeftArm 113.961292 -25.375587 -107.757639
LeftForeArm 29.887755 -0.000000 109.493106
LeftHand -6.896079 -0.000000 -0.502327
LeftHandThumb1 -26.253704 0.000000 33.147579
RightShoulder 8.082399 33.308255 -24.857626
RightArm 53.367498 34.576221 103.329983
RightForeArm -31.243264 -0.000000 128.257574
RightHand -3.337768 -0.000000 4.249354
RightHandThumb1 -24.326973 -0.000000 -32.862282
LeftUpLeg -85.117550 -11.638094 11.721204
LeftLeg 115.422322 -0.000000 -0.000000
LeftFoot 24.179631 -40.153733 -74.699276
LeftToeBase -111.216120 -0.000000 0.000000
RightUpLeg -96.573285 -17.830056 2.551252
RightLeg 135.041916 -0.000000 -0.000000
RightFoot -24.522200 -12.233025 6.973023
RightToeBase -65.457492 -0.000000 0.000000
529
root 23.053765 16.683109 4.922890 377.884239 -57.647693 -300.425584
Spine 43.120475 -21.218649 -0.148939
Head -44.121713 -0.710660 19.942952
LeftShoulder 5.018532 7.548220 42.980246
LeftArm 113.645889 -25.306561 -107.544813
LeftForeArm 30.095757 -0.000000 109.806095
LeftHand -6.952406 0.000000 -0.601578
LeftHandThumb1 -26.253704 0.000000 33.147579
RightShoulder 8.101170 33.199931 -24.842494
RightArm 53.253587 34.597589 103.589363
RightForeArm -31.487872 -0.000000 128.293934
RightHand -3.089872 -0.000000 4.322823
RightHandThumb1 -24.326973 -0.000000 -32.862282
LeftUpLeg -84.635319 -12.306205 12.514862
LeftLeg 114.755864 -0.000000 -0.000000
LeftFoot 22.632924 -39.882742 -72.877887
LeftToeBase -110.836379 -0.000000 0.000000
RightUpLeg -96.856943 -17.835666 2.804451
RightLeg 134.873719 -0.000000 -0.000000
RightFoot -24.457447 -12.740265 6.327772
RightToeBase -64.966017 -0.000000 0.000000
530
root 23.014227 16.704301 5.002330 378.572785 -58.075756 -300.976862
Spine 42.812399 -20.871611 0.149936
Head -43.828014 -0.894340 19.845123
LeftShoulder 5.180939 7.627247 43.019302
LeftArm 113.410378 -25.239584 -107.411164
LeftForeArm 30.580263 -0.000000 110.086142
LeftHand -7.022948 -0.000000 -0.482581
LeftHandThumb1 -26.253704 0.000000 33.147579
RightShoulder 8.108491 33.060522 -24.893679
RightArm 53.200805 34.591839 103.899101
RightForeArm -31.626605 0.000000 128.303039
RightHand -2.887403 0.000000 4.324743
RightHandThumb1 -24.326973 -0.000000 -32.862282
LeftUpLeg -84.012779 -12.910483 13.285752
LeftLeg 114.086101 -0.000000 -0.000000
LeftFoot 21.298251 -39.635695 -71.245057
LeftToeBase -110.600206 -0.000000 0.000000
RightUpLeg -96.935123 -17.670348 3.026414
RightLeg 134.689548 -0.000000 -0.000000
RightFoot -24.444606 -12.623529 6.220285
RightToeBase -64.217035 -0.000000 0.000000
531
root 22.992464 16.727870 5.086153 379.284146 -58.418878 -301.307388
Spine 42.174408 -20.603341 0.505937
Head -43.519438 -1.155960 19.759843
LeftShoulder 5.383541 7.331644 43.036602
LeftArm 112.748561 -25.152421 -107.145376
LeftForeArm 30.976541 -0.000000 110.381392
LeftHand -7.104538 -0.000000 -0.542169
LeftHandThumb1 -26.253704 0.000000 33.147579
RightShoulder 7.967694 32.880726 -25.034408
RightArm 53.039180 34.492601 104.267222
RightForeArm -31.560298 -0.000000 128.305385
RightHand -2.715043 -0.000000 4.308744
RightHandThumb1 -24.326973 -0.000000 -32.862282
LeftUpLeg -83.775682 -13.555488 13.747782
LeftLeg 113.538021 -0.000000 -0.000000
LeftFoot 17.284270 -39.234417 -64.851759
LeftToeBase -109.597442 -0.000000 0.000000
RightUpLeg -97.393860 -17.758137 3.353373
RightLeg 134.555281 -0.000000 -0.000000
RightFoot -24.262334 -12.495719 6.021836
RightToeBase -64.097164 -0.000000 0.000000
532
root 22.958786 16.748167 5.164687 379.898443 -58.895985 -301.943649
Spine 42.056319 -20.226109 0.699055
Head -43.199409 -1.232820 19.760446
LeftShoulder 5.533370 7.385255 43.120546
LeftArm 112.534499 -25.073113 -107.114722
LeftForeArm 31.289274 -0.000000 110.631453
LeftHand -7.185201 -0.000000 -0.674168
LeftHandThumb1 -26.253704 0.000000 33.147579
RightShoulder 7.982618 32.754347 -25.063575
RightArm 53.067705 34.392307 104.705119
RightForeArm -31.302462 -0.000000 128.299402
RightHand -2.703433 -0.000000 4.325635
RightHandThumb1 -24.326973 -0.000000 -32.862282
LeftUpLeg -83.081312 -14.055738 14.293637
LeftLeg 112.904522 -0.000000 -0.000000
LeftFoot 15.284487 -38.812548 -62.107935
LeftToeBase -109.649801 -0.000000 0.000000
RightUpLeg -97.282230 -17.434802 3.500139
RightLeg 134.358843 -0.000000 -0.000000
RightFoot -24.260066 -12.519411 5.932175
RightToeBase -63.484551 -0.000000 0.000000
533
root 22.925658 16.769707 5.246942 380.491169 -59.387144 -302.612900
Spine 41.993803 -19.833902 0.913382
Head -42.950414 -1.369685 19.718980
LeftShoulder 5.704724 7.487185 43.193320
LeftArm 112.380372 -24.999710 -107.103490
LeftForeArm 31.783349 -0.000000 110.852032
LeftHand -7.265646 -0.000000 -0.546072
LeftHandThumb1 -26.253704 0.000000 33.147579
RightShoulder 7.977618 32.727586 -25.125148
RightArm 53.043256 34.317127 105.171773
RightForeArm -30.911420 -0.000000 128.317322
RightHand -2.651270 -0.000000 4.569887
RightHandThumb1 -24.326973 -0.000000 -32.862282
LeftUpLeg -82.352319 -14.538129 14.770157
LeftLeg 112.285729 -0.000000 -0.000000
LeftFoot 13.227129 -38.297988 -59.639546
LeftToeBase -110.067722 -0.000000 0.000000
RightUpLeg -97.049363 -17.035499 3.569201
RightLeg 134.141336 -0.000000 -0.000000
RightFoot -24.461458 -12.393431 6.152569
RightToeBase -62.557687 -0.000000 0.000000
